<?xml version="1.0" standalone="no"?><!DOCTYPE svg PUBLIC "-//W3C//DTD SVG 1.1//EN" "http://www.w3.org/Graphics/SVG/1.1/DTD/svg11.dtd"><svg t="1579422994987" class="icon" viewBox="0 0 1024 1024" version="1.1" xmlns="http://www.w3.org/2000/svg" p-id="1849" xmlns:xlink="http://www.w3.org/1999/xlink" width="128" height="128"><defs><style type="text/css"></style></defs><path d="M1003.195733 943.44192l-110.114133-109.154987c67.505493-101.25312 46.680747-236.73856-48.114347-313.582933-94.79168-76.84096-232.792747-69.901653-319.3344 15.919787-86.534827 85.818027-93.47072 222.74048-16.03584 316.811946 77.441707 94.078293 214.002347 114.664107 316.095147 47.63648l109.994667 109.277867c13.765973 13.646507 36.027733 13.646507 49.793706 0l17.59232-17.472853a34.64192 34.64192 0 0 0 0.12288-49.435307z m-180.247893-178.81088a142.318933 142.318933 0 0 1-67.386027 66.90816c-19.145387 9.216-40.09984 14.127787-61.272746 14.247253-79.0016 0-143.025493-63.556267-143.025494-141.83424 0-78.400853 64.034133-141.83424 143.025494-141.953706 78.994773 0 143.018667 63.433387 143.148373 141.83424-0.129707 21.896533-5.515947 42.36288-14.4896 60.798293zM266.635947 748.2368c-20.11136 0-36.266667-16.155307-36.386134-36.031147 0-19.8656 16.278187-36.02432 36.386134-36.02432h114.660693c2.993493-33.87392 11.48928-66.310827 24.65792-96.11264H266.635947c-20.11136 0-36.266667-16.151893-36.386134-36.027733 0-19.8656 16.278187-36.031147 36.386134-36.031147h183.6032a313.51808 313.51808 0 0 1 136.567466-96.105813H266.63936c-20.107947 0-36.266667-16.151893-36.386133-36.027733 0-19.8656 16.2816-36.027733 36.386133-36.027734h559.301973c19.985067 0 36.386133 16.155307 36.386134 36.027734-0.119467 19.8656-16.274773 35.908267-36.386134 36.027733h-27.405653c98.747733 35.310933 173.185707 117.415253 198.085973 218.668373V112.56832C996.74112 52.606293 947.186347 3.413333 886.626987 3.413333H120.613547C60.050773 3.413333 10.499413 52.486827 10.499413 112.56832v779.772587c0 60.081493 49.55136 109.154987 110.114134 109.154986h484.621653c-117.538133-34.112853-204.311893-133.092693-221.904213-253.259093H266.635947z m0-576.662187h559.29856c19.985067 0 36.386133 16.151893 36.386133 36.027734-0.119467 19.8656-16.274773 35.91168-36.386133 36.027733H266.635947c-20.11136 0-36.386133-16.155307-36.386134-36.027733-0.003413-19.749547 16.274773-36.027733 36.386134-36.027734z" p-id="1850"></path></svg>