<?xml version="1.0" standalone="no"?><!DOCTYPE svg PUBLIC "-//W3C//DTD SVG 1.1//EN" "http://www.w3.org/Graphics/SVG/1.1/DTD/svg11.dtd"><svg t="1573281982195" class="icon" viewBox="0 0 1024 1024" version="1.1" xmlns="http://www.w3.org/2000/svg" p-id="6677" xmlns:xlink="http://www.w3.org/1999/xlink" width="128" height="128"><defs><style type="text/css"></style></defs><path d="M213.333333 981.333333c-46.933333 0-85.333333-38.4-85.333333-85.333333V128c0-46.933333 38.4-85.333333 85.333333-85.333333h597.333334c46.933333 0 85.333333 38.4 85.333333 85.333333v768c0 46.933333-38.4 85.333333-85.333333 85.333333H213.333333zM213.333333 149.333333v725.333334c0 12.8 8.533333 21.333333 21.333334 21.333333h554.666666c12.8 0 21.333333-8.533333 21.333334-21.333333v-725.333334c0-12.8-8.533333-21.333333-21.333334-21.333333h-554.666666c-12.8 0-21.333333 8.533333-21.333334 21.333333zM426.666667 768c-25.6 0-42.666667-17.066667-42.666667-42.666667s17.066667-42.666667 42.666667-42.666666h298.666666c25.6 0 42.666667 17.066667 42.666667 42.666666s-17.066667 42.666667-42.666667 42.666667h-298.666666z m-170.666667-42.666667c0-25.6 17.066667-42.666667 42.666667-42.666666s42.666667 17.066667 42.666666 42.666666-17.066667 42.666667-42.666666 42.666667-42.666667-17.066667-42.666667-42.666667z m170.666667-170.666666c-25.6 0-42.666667-17.066667-42.666667-42.666667s17.066667-42.666667 42.666667-42.666667h298.666666c25.6 0 42.666667 17.066667 42.666667 42.666667s-17.066667 42.666667-42.666667 42.666667h-298.666666z m-170.666667-42.666667c0-25.6 17.066667-42.666667 42.666667-42.666667s42.666667 17.066667 42.666666 42.666667-17.066667 42.666667-42.666666 42.666667-42.666667-17.066667-42.666667-42.666667z m170.666667-170.666667c-25.6 0-42.666667-17.066667-42.666667-42.666666s17.066667-42.666667 42.666667-42.666667h298.666666c25.6 0 42.666667 17.066667 42.666667 42.666667s-17.066667 42.666667-42.666667 42.666666h-298.666666zM256 298.666667c0-25.6 17.066667-42.666667 42.666667-42.666667s42.666667 17.066667 42.666666 42.666667-17.066667 42.666667-42.666666 42.666666-42.666667-17.066667-42.666667-42.666666z" p-id="6678"></path></svg>