<?xml version="1.0" standalone="no"?><!DOCTYPE svg PUBLIC "-//W3C//DTD SVG 1.1//EN" "http://www.w3.org/Graphics/SVG/1.1/DTD/svg11.dtd"><svg t="1573275425223" class="icon" viewBox="0 0 1024 1024" version="1.1" xmlns="http://www.w3.org/2000/svg" p-id="5739" xmlns:xlink="http://www.w3.org/1999/xlink" width="128" height="128"><defs><style type="text/css"></style></defs><path d="M457.638 378.803L135.805 724.014l-70.647-75.779 321.837-345.21zM960.013 378.803L638.184 724.014l-70.655-75.779 321.846-345.21z" fill="#bfbfbf" p-id="5740"></path><path d="M638.184 724.014L316.339 378.803l70.656-75.778 321.833 345.21z" fill="#bfbfbf" p-id="5741"></path><path d="M477.835 383.898c0 55.104-44.669 99.774-99.771 99.774-55.107 0-99.775-44.67-99.775-99.774 0-55.103 44.668-99.778 99.775-99.778 55.103 0 99.771 44.675 99.771 99.778zM737.793 643.854c0 55.106-44.668 99.774-99.771 99.774-55.107 0-99.78-44.668-99.78-99.774 0-55.104 44.673-99.776 99.78-99.776 55.103 0 99.771 44.672 99.771 99.776zM199.55 681.348c0 55.105-44.677 99.773-99.775 99.773C44.668 781.122 0 736.454 0 681.348c0-55.104 44.668-99.777 99.775-99.777 55.099 0 99.775 44.674 99.775 99.777zM1024 342.655c0 55.105-44.672 99.775-99.775 99.775-55.107 0-99.776-44.67-99.776-99.775 0-55.102 44.669-99.775 99.776-99.775 55.103-0.001 99.775 44.673 99.775 99.775z" fill="#bfbfbf" p-id="5742"></path></svg>