<?xml version="1.0" standalone="no"?><!DOCTYPE svg PUBLIC "-//W3C//DTD SVG 1.1//EN" "http://www.w3.org/Graphics/SVG/1.1/DTD/svg11.dtd"><svg t="1588120357729" class="icon" viewBox="0 0 1170 1024" version="1.1" xmlns="http://www.w3.org/2000/svg" p-id="2057" xmlns:xlink="http://www.w3.org/1999/xlink" width="146.25" height="128"><defs><style type="text/css"></style></defs><path d="M1024 0H146.285714a146.285714 146.285714 0 0 0-146.285714 146.285714v731.428572a146.285714 146.285714 0 0 0 146.285714 146.285714h877.714286a146.285714 146.285714 0 0 0 146.285714-146.285714V146.285714a146.285714 146.285714 0 0 0-146.285714-146.285714z m0 219.428571L658.285714 438.857143a135.021714 135.021714 0 0 1-146.285714 0L146.285714 219.428571V146.285714h877.714286v73.142857z m-73.142857 658.285715H219.428571a73.142857 73.142857 0 0 1-73.142857-73.142857V365.714286l365.714286 219.428571a126.098286 126.098286 0 0 0 146.285714 0l365.714286-219.428571v438.857143a73.142857 73.142857 0 0 1-73.142857 73.142857z" p-id="2058" fill="#e6e6e6"></path></svg>