<svg class="icon" viewBox="0 0 1310 1024" xmlns="http://www.w3.org/2000/svg" width="163.75" height="128"><defs><style/></defs><path d="M1187.84 286.72H122.88A122.88 122.88 0 010 163.84v-40.96A122.88 122.88 0 01122.88 0h1064.96a122.88 122.88 0 01122.88 122.88v40.96a122.88 122.88 0 01-122.88 122.88zm40.96-163.84a40.96 40.96 0 00-40.96-40.96H122.88a40.96 40.96 0 00-40.96 40.96v40.96a40.96 40.96 0 0040.96 40.96h1064.96a40.96 40.96 0 0040.96-40.96v-40.96zM122.88 368.64h614.4a122.88 122.88 0 01122.88 122.88v40.96a122.88 122.88 0 01-122.88 122.88h-614.4A122.88 122.88 0 010 532.48v-40.96a122.88 122.88 0 01122.88-122.88zM81.92 532.48a40.96 40.96 0 0040.96 40.96h614.4a40.96 40.96 0 0040.96-40.96v-40.96a40.96 40.96 0 00-40.96-40.96h-614.4a40.96 40.96 0 00-40.96 40.96v40.96zm40.96 204.8h860.16a122.88 122.88 0 01122.88 122.88v40.96A122.88 122.88 0 01983.04 1024H122.88A122.88 122.88 0 010 901.12v-40.96a122.88 122.88 0 01122.88-122.88zM81.92 901.12a40.96 40.96 0 0040.96 40.96h860.16a40.96 40.96 0 0040.96-40.96v-40.96a40.96 40.96 0 00-40.96-40.96H122.88a40.96 40.96 0 00-40.96 40.96v40.96z"/></svg>