<?xml version="1.0" standalone="no"?><!DOCTYPE svg PUBLIC "-//W3C//DTD SVG 1.1//EN" "http://www.w3.org/Graphics/SVG/1.1/DTD/svg11.dtd"><svg t="1588034551636" class="icon" viewBox="0 0 1024 1024" version="1.1" xmlns="http://www.w3.org/2000/svg" p-id="8656" xmlns:xlink="http://www.w3.org/1999/xlink" width="128" height="128"><defs><style type="text/css"></style></defs><path d="M594.095104 179.2C553.135104 102.4 460.975104 76.8 384.175104 117.76c-35.84 20.48-61.44 51.2-71.68 92.16-10.24 40.96-5.12 81.92 15.36 117.76 15.36 25.6 35.84 46.08 61.44 61.44 20.48 10.24 30.72 30.72 25.6 51.2-5.12 20.48-20.48 40.96-40.96 46.08-10.24 0-20.48 5.12-30.72 10.24-143.36 51.2-240.64 194.56-240.64 348.16 0 40.96 35.84 76.8 76.8 76.8H358.575104c30.72 0 51.2 20.48 51.2 51.2s-20.48 51.2-51.2 51.2H179.375104C82.095104 1024 0.175104 942.08 0.175104 844.8-4.944896 665.6 102.575104 496.64 261.295104 414.72c-10.24-10.24-15.36-25.6-25.6-35.84C169.135104 256 215.215104 97.28 338.095104 30.72c122.88-66.56 281.6-20.48 348.16 102.4 51.2 92.16 35.84 204.8-25.6 281.6 71.68 30.72 128 81.92 174.08 148.48H972.975104c30.72 0 51.2 20.48 51.2 51.2s-20.48 51.2-51.2 51.2h-409.6c-30.72 0-51.2-20.48-51.2-51.2s20.48-51.2 51.2-51.2h133.12c-40.96-35.84-92.16-66.56-153.6-76.8-15.36-5.12-30.72-25.6-35.84-46.08-5.12-20.48 10.24-40.96 25.6-51.2 76.8-40.96 102.4-133.12 61.44-209.92z m378.88 563.2h-409.6c-30.72 0-51.2 20.48-51.2 51.2s20.48 51.2 51.2 51.2h409.6c30.72 0 51.2-20.48 51.2-51.2s-20.48-51.2-51.2-51.2z m0 179.2h-409.6c-30.72 0-51.2 20.48-51.2 51.2s20.48 51.2 51.2 51.2h409.6c30.72 0 51.2-20.48 51.2-51.2s-20.48-51.2-51.2-51.2z" p-id="8657" fill="#e6e6e6"></path></svg>