<?xml version="1.0" standalone="no"?><!DOCTYPE svg PUBLIC "-//W3C//DTD SVG 1.1//EN" "http://www.w3.org/Graphics/SVG/1.1/DTD/svg11.dtd"><svg t="1588034788912" class="icon" viewBox="0 0 1024 1024" version="1.1" xmlns="http://www.w3.org/2000/svg" p-id="12115" xmlns:xlink="http://www.w3.org/1999/xlink" width="128" height="128"><defs><style type="text/css"></style></defs><path d="M118.613333 819.2L119.466667 546.133333l359.253333 358.4h-274.773333c-56.8832 0-85.333333-28.450133-85.333334-85.333333z" p-id="12116" fill="#e6e6e6"></path><path d="M853.333333 955.733333H512.802133a16.810667 16.810667 0 0 1-11.8784-4.846933c0-0.034133 0-0.017067-0.034133-0.034133l-0.017067-0.034134-0.034133-0.034133-0.034133-0.0512L471.6544 921.6H203.946667c-66.030933 0-102.4-36.369067-102.4-102.4v-0.0512l0.8192-265.966933-29.115734-29.115734A16.861867 16.861867 0 0 1 68.266667 512.0512V170.666667c0-66.030933 36.369067-102.4 102.4-102.4h682.666666c66.030933 0 102.4 36.369067 102.4 102.4v682.666666c0 66.030933-36.369067 102.4-102.4 102.4z m-323.413333-34.133333H853.333333c47.223467 0 68.266667-21.0432 68.266667-68.266667V170.666667c0-47.223467-21.0432-68.266667-68.266667-68.266667H170.666667c-47.223467 0-68.266667 21.0432-68.266667 68.266667v324.266666h238.933333c53.060267 1.2288 97.757867 19.848533 133.239467 55.3472 36.727467 36.727467 55.3472 81.288533 55.3472 132.386134v238.933333z m-39.185067-29.184l0.0512 0.0512 5.000534 5.000533V682.666667c0-42.308267-14.830933-77.7216-45.346134-108.253867-29.474133-29.474133-65.314133-44.322133-109.499733-45.346133H126.532267l5.000533 5.000533 0.017067 0.017067L490.734933 892.416zM135.68 819.2c0 47.223467 21.060267 68.266667 68.266667 68.266667h233.489066L136.413867 587.127467 135.68 819.2z" p-id="12117" fill="#e6e6e6"></path></svg>