<?xml version="1.0" encoding="iso-8859-1"?>
<!-- Generator: Adobe Illustrator 19.0.0, SVG Export Plug-In . SVG Version: 6.00 Build 0)  -->
<svg version="1.1" id="Layer_1" xmlns="http://www.w3.org/2000/svg" xmlns:xlink="http://www.w3.org/1999/xlink" x="0px" y="0px"
	 viewBox="0 0 512 512" style="enable-background:new 0 0 512 512;" xml:space="preserve">
<polygon style="fill:#FFFFFF;" points="478.609,189.217 478.609,155.826 445.217,155.826 445.217,33.391 411.826,33.391 411.826,0 
	345.043,0 345.043,33.391 311.652,33.391 311.652,66.783 244.87,66.783 244.87,100.174 66.783,100.174 66.783,133.565 
	33.391,133.565 33.391,166.957 0,166.957 0,289.391 33.391,289.391 33.391,322.783 66.783,322.783 66.783,478.609 100.174,478.609 
	100.174,512 166.957,512 166.957,478.609 200.348,478.609 200.348,356.174 244.87,356.174 244.87,389.565 311.652,389.565 
	311.652,422.957 345.043,422.957 345.043,456.348 411.826,456.348 411.826,422.957 445.217,422.957 445.217,300.522 
	478.609,300.522 478.609,267.13 512,267.13 512,189.217 "/>
<g>
	<polygon style="fill:#C70024;" points="512,189.217 478.609,189.217 478.609,155.826 411.826,155.826 411.826,300.522 
		478.609,300.522 478.609,267.13 512,267.13 	"/>
	<polygon style="fill:#C70024;" points="200.348,322.783 155.826,322.783 155.826,100.174 66.783,100.174 66.783,133.565 
		33.391,133.565 33.391,166.957 0,166.957 0,289.391 33.391,289.391 33.391,322.783 66.783,322.783 66.783,356.174 66.783,478.609 
		100.174,478.609 100.174,512 166.957,512 166.957,478.609 200.348,478.609 	"/>
</g>
<polygon style="fill:#FFFFFF;" points="66.783,100.174 66.783,133.565 33.391,133.565 33.391,166.957 0,166.957 0,200.348 
	66.783,200.348 66.783,166.957 100.174,166.957 100.174,100.174 "/>
<polygon points="445.217,189.217 478.609,189.217 478.609,155.826 445.217,155.826 445.217,33.391 411.826,33.391 411.826,422.957 
	445.217,422.957 445.217,300.522 478.609,300.522 478.609,267.13 445.217,267.13 "/>
<rect x="345.043" width="66.783" height="33.391"/>
<rect x="345.043" y="422.957" width="66.783" height="33.391"/>
<rect x="244.87" y="66.783" width="66.783" height="33.391"/>
<rect x="244.87" y="356.174" width="66.783" height="33.391"/>
<polygon points="155.826,322.783 155.826,133.565 244.87,133.565 244.87,100.174 66.783,100.174 66.783,133.565 122.435,133.565 
	122.435,322.783 66.783,322.783 66.783,478.609 100.174,478.609 100.174,356.174 166.957,356.174 166.957,478.609 200.348,478.609 
	200.348,356.174 244.87,356.174 244.87,322.783 "/>
<rect y="166.957" width="33.391" height="122.435"/>
<rect x="311.652" y="33.391" width="33.391" height="33.391"/>
<rect x="311.652" y="389.565" width="33.391" height="33.391"/>
<rect x="100.174" y="478.609" width="66.783" height="33.391"/>
<rect x="33.391" y="133.565" width="33.391" height="33.391"/>
<rect x="33.391" y="289.391" width="33.391" height="33.391"/>
<rect x="478.609" y="189.217" width="33.391" height="77.913"/>
<g>
</g>
<g>
</g>
<g>
</g>
<g>
</g>
<g>
</g>
<g>
</g>
<g>
</g>
<g>
</g>
<g>
</g>
<g>
</g>
<g>
</g>
<g>
</g>
<g>
</g>
<g>
</g>
<g>
</g>
</svg>
