<svg class="icon" viewBox="0 0 1024 1024" xmlns="http://www.w3.org/2000/svg" width="128" height="128"><defs><style/></defs><path d="M433.23 708.923c0-53.17 17.724-114.215 45.293-161.477 33.477-59.077 70.892-82.708 100.43-126.03 49.232-72.862 59.078-177.231 27.57-256-31.508-80.74-106.338-128-192.985-126.031S256 94.523 228.431 175.262c-31.508 88.615-17.723 194.953 53.169 261.907 29.538 27.57 57.108 70.893 41.354 112.246-13.785 39.385-61.046 57.108-94.523 72.862-76.8 33.477-169.354 80.738-185.108 171.323C27.57 868.43 78.77 945.23 159.508 945.23h334.769c15.754 0 25.6-19.692 15.754-31.507-49.231-57.108-76.8-129.97-76.8-204.8zm315.078-236.308C618.338 472.615 512 578.954 512 708.923s106.338 236.308 236.308 236.308 236.307-106.339 236.307-236.308-106.338-236.308-236.307-236.308zm41.354 257.97c-5.908 0-13.785-1.97-19.693-3.939l-90.584 90.585c-5.908 5.907-13.785 7.877-19.693 7.877-7.877 0-13.784-1.97-19.692-7.877-9.846-9.846-9.846-27.57 0-39.385l90.585-90.584c-1.97-5.908-3.939-11.816-3.939-19.693-3.938-41.354 29.539-78.769 70.892-78.769 5.908 0 13.785 1.97 19.693 3.938 3.938 0 3.938 3.939 1.969 5.908L779.815 640c-3.938 1.97-3.938 7.877 0 9.846l27.57 27.57c3.938 3.938 7.877 3.938 11.815 0l39.385-39.385c1.969-1.97 5.907-1.97 5.907 1.969 1.97 5.908 3.939 13.785 3.939 19.692 0 41.354-35.446 74.831-78.77 70.893z"/></svg>