<?xml version="1.0" standalone="no"?><!DOCTYPE svg PUBLIC "-//W3C//DTD SVG 1.1//EN" "http://www.w3.org/Graphics/SVG/1.1/DTD/svg11.dtd"><svg t="1573275344544" class="icon" viewBox="0 0 1024 1024" version="1.1" xmlns="http://www.w3.org/2000/svg" p-id="4905" xmlns:xlink="http://www.w3.org/1999/xlink" width="128" height="128"><defs><style type="text/css"></style></defs><path d="M794.876114 623.329575c-4.783956-4.061502-7.258311-6.379291-9.951653-8.400321-27.737738-20.753673-37.71395-44.189432-32.31908-82.143858 19.799952-139.245368-93.01751-253.946736-206.836789-266.310322-143.582139-15.60235-261.73205 74.765821-279.95918 212.771965-21.769816 164.801417 123.728976 302.652018 287.364847 271.409456 18.377556-3.505847 30.783097 0.446162 42.819225 13.751189 8.514931 9.429767 19.276019 16.845667 32.580023 28.195156-37.47245 19.61678-38.010709 50.350758-36.038798 81.839937 1.935072 31.033807-3.793396 60.916395-34.653241 73.42529-33.675984 13.660114-71.837118 16.503882-103.297644-3.982708-14.459317-9.42158-21.934568-32.737612-27.67327-51.281967-4.351098-14.047947-0.679475-30.500665-1.039679-45.880957-0.559748-24.533766-11.769045-42.688241-34.498722-52.258201-22.688745-9.547447-43.470047-5.464455-61.298088 11.907191-11.017938 10.737552-21.74321 21.793352-33.060977 32.196283-21.935592 20.160155-52.573379 26.043143-75.032904 9.692756-19.629059-14.298658-37.691437-32.264844-52.094472-51.806923-15.779382-21.428032-9.508561-54.511521 9.918907-75.270311 10.469446-11.20418 22.021549-21.402449 32.740682-32.383548 15.635095-16.001439 21.249977-35.371602 14.46034-56.601112-7.082302-22.11774-23.340591-35.936467-46.434565-38.980803-17.726733-2.337231-35.800367-1.866511-53.721529-2.759857-38.677904-1.922792-61.155848-24.400736-62.807465-63.172785-0.514723-11.9471-0.478907-23.938202-0.044002-35.885302 1.438769-39.9642 26.599821-64.673975 66.683748-65.559135 14.517645-0.320295 29.096688 0.571005 43.574425-0.286526 24.105001-1.416256 42.938951-12.609179 51.909254-35.371602 8.921183-22.632463 3.952009-43.584658-13.619182-61.065797-9.673313-9.634428-19.343557-19.290345-28.817326-29.135574-4.100388-4.272303-8.376785-8.619308-11.404748-13.637602-21.141506-35.013445-8.628518-69.843718 38.730093-108.711957 27.560706-22.61916 61.065797-21.494547 87.968517 3.302209 11.302417 10.416234 21.803585 21.712511 33.151028 32.078603 18.178011 16.623609 39.643905 20.278859 61.772902 10.707876 21.187555-9.166777 33.17968-26.012444 32.980135-50.296523-0.132006-16.217357-0.211824-32.505321 0.964978-48.667419 2.278903-31.390941 22.608927-55.883775 53.201689-60.253292 20.027126-2.861164 41.111327-2.827395 61.155848-0.034792 28.816303 4.00829 49.54644 29.52443 51.111075 59.169611 0.913812 17.046235-0.776689 34.263361 0.605797 51.252291 1.938142 23.699772 12.786211 41.890063 36.236296 51.210335 23.64656 9.387811 43.388183 3.282766 60.841693-13.609972 7.360641-7.132444 14.276145-14.739702 21.528316-21.985734 4.825912-4.825912 9.550517-9.873882 14.94027-14.026458 34.249035-26.360368 72.396867-15.230889 113.570615 32.894178 25.098631 29.332049 23.430642 64.166415-4.146437 91.538833-10.901281 10.821463-22.363334 21.295002-31.896454 33.258475-14.863523 18.651802-19.837814 40.295751-8.697079 62.270229 10.434653 20.570501 28.559453 31.032784 52.106752 31.026644 14.532995-0.011256 29.083385-0.51984 43.577494 0.177032 34.573423 1.673106 59.320037 22.192442 63.605643 55.234999 2.39556 18.451234 2.410909 37.747719-0.078795 56.18258-4.431939 32.807197-30.226418 54.028521-63.679321 55.307653-10.245342 0.396019-20.565385 0.74906-30.763654-0.056282C834.505693 592.222089 812.48312 600.493473 794.876114 623.329575L794.876114 623.329575 794.876114 623.329575zM336.428797 465.277886c21.129226 22.157649 41.911552 44.651966 63.458287 66.385966 41.071418 41.432645 94.473675 42.723034 134.031623 3.771907 40.815591-40.181141 40.192398-92.732008-2.596128-135.203308-21.810748-21.63781-45.025473-41.848107-65.680908-66.107627 55.258535-16.457834 105.312534-7.430226 150.141532 23.8942 71.059406 49.65491 97.591689 133.460618 68.603471 215.108173-5.52176 15.544021-0.925069 23.334451 8.909927 32.962739 53.104475 51.995211 106.144482 104.066147 158.685115 156.632363 30.141484 30.17116 28.558429 66.269309-2.89698 93.571119-25.332968 21.975501-56.918337 21.159926-82.621742-3.979638-53.156664-51.972699-105.923448-104.357789-158.085458-157.321048-12.117992-12.295024-21.593807-15.470343-39.461757-9.457396-69.969585 23.548322-133.780913 9.17394-187.102329-41.697681-50.094932-47.783283-65.217351-107.36938-53.014424-174.025499C331.347059 468.304825 333.893045 466.791355 336.428797 465.277886L336.428797 465.277886 336.428797 465.277886zM809.286312 777.423115c-17.692964 2.096754-29.640064 11.273764-31.242562 30.090319-1.462305 17.126053 14.383592 32.659841 31.79003 32.692586 17.664312 0.029676 32.298614-14.899338 31.289634-32.889061C840.03871 787.971355 828.319807 779.017426 809.286312 777.423115L809.286312 777.423115 809.286312 777.423115zM809.286312 777.423115" p-id="4906" fill="#1296db"></path></svg>