<?xml version="1.0" standalone="no"?><!DOCTYPE svg PUBLIC "-//W3C//DTD SVG 1.1//EN" "http://www.w3.org/Graphics/SVG/1.1/DTD/svg11.dtd"><svg t="1588034705453" class="icon" viewBox="0 0 1109 1024" version="1.1" xmlns="http://www.w3.org/2000/svg" p-id="10670" xmlns:xlink="http://www.w3.org/1999/xlink" width="138.625" height="128"><defs><style type="text/css"></style></defs><path d="M134.841173 721.92A415.573333 415.573333 0 0 1 0.014507 414.293333 410.88 410.88 0 0 1 406.62784 0a410.88 410.88 0 0 1 406.613333 414.293333 416 416 0 0 1-105.813333 278.186667L395.961173 1024z" fill="#E0E0E0" p-id="10671"></path><path d="M391.694507 721.92A415.573333 415.573333 0 0 1 256.014507 414.293333 410.453333 410.453333 0 0 1 663.481173 0a410.88 410.88 0 0 1 406.613334 414.293333 416 416 0 0 1-105.813334 278.186667L652.814507 1024z" fill="#BCBCBC" p-id="10672"></path><path d="M371.214507 412.586667a298.666667 297.813333 0 1 0 597.333333 0 298.666667 297.813333 0 1 0-597.333333 0Z" fill="#FFFFFF" p-id="10673"></path><path d="M872.54784 423.253333H678.414507V229.973333a20.906667 20.906667 0 1 0-42.666667 0v213.333334a20.906667 20.906667 0 0 0 20.906667 20.906666h213.333333a20.906667 20.906667 0 1 0 0-42.666666" fill="#BCBCBC" p-id="10674"></path></svg>