<?xml version="1.0" standalone="no"?><!DOCTYPE svg PUBLIC "-//W3C//DTD SVG 1.1//EN" "http://www.w3.org/Graphics/SVG/1.1/DTD/svg11.dtd"><svg t="1587781498550" class="icon" viewBox="0 0 1024 1024" version="1.1" xmlns="http://www.w3.org/2000/svg" p-id="2739" xmlns:xlink="http://www.w3.org/1999/xlink" width="128" height="128"><defs><style type="text/css"></style></defs><path d="M358.4 650.24v256H102.4v-256h256m0-102.4H102.4c-56.32 0-102.4 46.08-102.4 102.4v256c0 56.32 46.08 102.4 102.4 102.4h256c56.32 0 102.4-46.08 102.4-102.4v-256c0-56.32-46.08-102.4-102.4-102.4zM10.24 174.08c20.48-20.48 56.32-20.48 76.8 0l143.36 143.36c20.48 20.48 20.48 51.2 0 71.68s-51.2 20.48-71.68 0L10.24 245.76c-15.36-20.48-15.36-51.2 0-71.68z m148.48 143.36L445.44 30.72c20.48-20.48 51.2-20.48 71.68 0s20.48 51.2 0 71.68L230.4 394.24c-20.48 20.48-51.2 20.48-71.68 0s-20.48-56.32 0-76.8zM614.4 291.84h358.4c30.72 0 51.2 20.48 51.2 51.2s-20.48 51.2-51.2 51.2h-358.4c-30.72 0-51.2-20.48-51.2-51.2s20.48-51.2 51.2-51.2z m0 563.2h358.4c30.72 0 51.2 20.48 51.2 51.2s-20.48 51.2-51.2 51.2h-358.4c-30.72 0-51.2-20.48-51.2-51.2s20.48-51.2 51.2-51.2z m0-819.2h358.4c30.72 0 51.2 20.48 51.2 51.2s-20.48 51.2-51.2 51.2h-358.4c-30.72 0-51.2-20.48-51.2-51.2s20.48-51.2 51.2-51.2z m0 563.2h358.4c30.72 0 51.2 20.48 51.2 51.2s-20.48 51.2-51.2 51.2h-358.4c-30.72 0-51.2-20.48-51.2-51.2s20.48-51.2 51.2-51.2z" p-id="2740" fill="#e6e6e6"></path></svg>