<?xml version="1.0" standalone="no"?><!DOCTYPE svg PUBLIC "-//W3C//DTD SVG 1.1//EN" "http://www.w3.org/Graphics/SVG/1.1/DTD/svg11.dtd"><svg t="1588038501078" class="icon" viewBox="0 0 1024 1024" version="1.1" xmlns="http://www.w3.org/2000/svg" p-id="14048" xmlns:xlink="http://www.w3.org/1999/xlink" width="128" height="128"><defs><style type="text/css"></style></defs><path d="M980.48 801.28c0 46.08-35.84 81.92-81.92 81.92H128c-46.08 0-81.92-35.84-81.92-81.92V506.88c-2.56-5.12 0-12.8 5.12-20.48L250.88 148.48c12.8-17.92 40.96-33.28 61.44-33.28h417.28c23.04 0 48.64 15.36 61.44 35.84L975.36 486.4c2.56 5.12 5.12 10.24 5.12 15.36v299.52zM87.04 481.28v20.48-20.48z m0 320c0 23.04 17.92 40.96 40.96 40.96h770.56c23.04 0 40.96-17.92 40.96-40.96v-281.6h-243.2v81.92c0 23.04-17.92 40.96-40.96 40.96H371.2c-23.04 0-40.96-17.92-40.96-40.96v-81.92H87.04v281.6z m568.32-220.16v-102.4H371.2v102.4c0 10.24 10.24 20.48 20.48 20.48h243.2c10.24 0 20.48-7.68 20.48-20.48zM768 189.44c-10.24-20.48-38.4-35.84-61.44-35.84H335.36c-23.04 0-51.2 15.36-61.44 33.28L107.52 478.72H921.6L768 189.44zM248.32 399.36c0-10.24 10.24-20.48 20.48-20.48h486.4c10.24 0 20.48 10.24 20.48 20.48s-10.24 20.48-20.48 20.48h-486.4c-10.24 0-20.48-10.24-20.48-20.48zM716.8 337.92H309.76c-10.24 0-20.48-10.24-20.48-20.48s10.24-20.48 20.48-20.48H716.8c10.24 0 20.48 10.24 20.48 20.48-2.56 10.24-10.24 20.48-20.48 20.48zM675.84 256H350.72c-10.24 0-20.48-10.24-20.48-20.48s10.24-20.48 20.48-20.48h325.12c10.24 0 20.48 10.24 20.48 20.48 0 12.8-10.24 20.48-20.48 20.48z" fill="#e6e6e6" p-id="14049"></path></svg>